<?xml version="1.0" standalone="no"?>
<!DOCTYPE svg PUBLIC "-//W3C//DTD SVG 20010904//EN"
 "http://www.w3.org/TR/2001/REC-SVG-20010904/DTD/svg10.dtd">
<svg version="1.0" xmlns="http://www.w3.org/2000/svg"
 width="563.000000pt" height="563.000000pt" viewBox="0 0 563.000000 563.000000"
 preserveAspectRatio="xMidYMid meet">

<g transform="translate(0.000000,563.000000) scale(0.100000,-0.100000)"
fill="#000000" stroke="none">
<path d="M0 2815 l0 -2815 2815 0 2815 0 0 2815 0 2815 -2815 0 -2815 0 0
-2815z m2264 2154 c6 -5 -9 -28 -35 -56 -24 -26 -53 -59 -64 -73 -29 -38 -66
-60 -98 -60 -17 0 -26 -4 -22 -10 4 -6 14 -10 23 -8 10 1 38 -6 64 -16 58 -23
87 -16 36 8 -21 10 -38 21 -38 25 0 4 11 18 24 30 l25 23 33 -21 c33 -21 75
-42 113 -55 19 -7 18 -9 -10 -32 -32 -26 -84 -44 -126 -44 -62 0 -159 53 -159
87 0 7 -7 13 -15 13 -30 0 -19 18 47 78 26 23 45 42 42 42 -31 0 -124 -86
-124 -115 0 -8 -10 -21 -22 -29 -38 -27 -44 -18 -11 17 17 17 40 51 52 73 26
54 93 111 151 129 44 14 96 11 114 -6z m1256 -10 c43 -21 115 -96 125 -130 4
-13 21 -36 38 -51 18 -14 30 -29 27 -32 -9 -9 -55 20 -52 33 3 15 -102 121
-120 121 -7 0 11 -22 40 -48 52 -47 65 -72 37 -72 -8 0 -15 -8 -15 -17 0 -34
-94 -83 -158 -83 -41 0 -110 28 -130 53 -12 13 -8 18 30 36 24 11 59 30 78 41
l34 20 23 -22 c31 -29 29 -34 -14 -57 -45 -24 -20 -28 34 -6 19 8 46 15 59 15
12 0 26 5 29 10 4 6 -7 10 -26 10 -23 0 -40 10 -68 38 -98 105 -132 145 -124
152 24 23 97 18 153 -11z m-1571 -94 c2 -2 -9 -19 -23 -36 -15 -18 -40 -58
-56 -89 -38 -75 -79 -110 -131 -110 -21 0 -39 4 -39 10 0 5 21 35 46 65 53 66
51 86 -2 29 -38 -40 -69 -98 -59 -114 6 -9 -45 -53 -53 -46 -2 3 7 19 22 36
14 17 26 40 26 51 0 60 107 191 167 205 15 3 33 7 38 9 10 4 57 -4 64 -10z
m1877 -21 c59 -33 124 -125 124 -174 0 -12 11 -36 25 -54 32 -42 32 -51 0 -30
-14 9 -24 22 -23 28 3 18 -31 89 -55 114 -48 52 -57 41 -13 -16 59 -77 59 -86
0 -79 -56 6 -80 27 -124 109 -18 35 -44 77 -57 95 -22 29 -23 32 -6 36 31 8
86 -4 129 -29z m-2176 -139 c0 -3 -8 -22 -19 -43 -10 -20 -28 -68 -40 -107
-11 -38 -27 -77 -34 -86 -16 -21 -71 -49 -97 -49 -26 0 -22 20 22 98 17 29 28
56 25 59 -8 7 -57 -69 -73 -114 l-13 -38 -1 35 c-1 90 77 208 155 235 42 15
75 19 75 10z m289 -15 c24 -11 53 -20 65 -20 11 0 28 -5 36 -10 12 -7 11 -13
-10 -36 -57 -62 -166 -81 -247 -44 -24 10 -43 23 -43 28 0 15 67 22 100 11 30
-11 97 -8 70 3 -8 4 -27 9 -42 12 -32 7 -34 17 -12 51 20 30 26 30 83 5z
m1841 -9 c20 -30 20 -30 1 -40 -11 -6 -29 -11 -40 -11 -12 0 -21 -4 -21 -10 0
-13 35 -13 78 0 36 10 92 3 92 -11 0 -5 -18 -18 -40 -29 -76 -39 -201 -15
-251 48 -22 29 -13 41 31 42 14 0 43 9 65 20 53 26 60 25 85 -9z m299 3 c38
-19 62 -40 83 -73 38 -61 63 -144 49 -168 -9 -16 -10 -15 -11 8 0 26 -48 110
-70 124 -15 9 -14 8 28 -72 17 -34 32 -67 32 -73 0 -17 -43 -11 -77 10 -36 21
-54 51 -76 126 -8 28 -24 69 -36 91 -31 62 -8 70 78 27z m-1336 -148 c32 -18
64 -26 133 -31 81 -6 97 -4 139 14 75 33 105 29 156 -24 34 -35 62 -51 129
-76 74 -27 93 -30 148 -25 77 8 95 -1 127 -63 40 -81 154 -167 234 -180 68
-11 92 -35 107 -110 18 -86 98 -194 169 -228 65 -30 80 -60 72 -140 -9 -82 29
-195 87 -260 56 -62 64 -96 36 -162 -19 -42 -21 -65 -18 -148 2 -81 7 -103 25
-128 18 -26 28 -71 24 -110 -1 -6 -18 -31 -39 -57 -54 -65 -89 -194 -74 -270
14 -71 -1 -106 -62 -144 -75 -47 -156 -183 -156 -262 0 -44 -36 -80 -99 -98
-74 -20 -176 -105 -208 -172 -35 -74 -52 -85 -140 -93 -98 -8 -197 -51 -264
-114 -59 -55 -84 -62 -149 -40 -76 25 -202 13 -277 -26 -72 -38 -105 -37 -173
5 -76 47 -199 71 -280 54 -73 -15 -108 -2 -146 53 -45 65 -184 139 -261 139
-66 0 -95 27 -119 110 -7 26 -140 170 -156 170 -5 0 -31 9 -58 21 -56 24 -66
42 -79 144 -12 90 -54 168 -125 229 -63 54 -73 83 -49 157 25 75 8 179 -41
259 -45 73 -46 112 -6 183 49 87 57 199 19 288 -19 47 2 100 52 133 60 40 111
153 114 254 3 85 20 111 92 138 66 25 164 143 186 223 20 70 47 91 120 91 66
0 190 78 238 150 43 65 64 74 138 59 48 -10 68 -9 131 6 90 21 104 28 153 71
46 42 90 45 150 10z m-995 -20 c54 -1 54 -14 1 -71 -30 -33 -56 -49 -93 -60
-55 -17 -123 -12 -153 10 -17 13 -16 14 12 26 17 6 48 11 71 10 22 -1 51 3 65
8 21 9 20 10 -18 10 -50 1 -56 9 -42 51 l12 32 51 -8 c28 -5 70 -8 94 -8z
m2295 -18 c16 -39 9 -47 -43 -49 -29 0 -31 -2 -15 -9 11 -5 40 -9 65 -10 25 0
59 -7 75 -14 l30 -14 -30 -12 c-85 -35 -194 -6 -254 67 -42 51 -41 65 7 58 20
-3 51 -1 67 4 60 19 84 14 98 -21z m-2688 -45 c-4 -21 -12 -77 -19 -124 -7
-47 -19 -97 -28 -111 -17 -26 -85 -64 -96 -53 -4 3 2 36 12 73 28 105 29 110
2 62 -13 -25 -28 -63 -31 -84 -6 -31 -9 -36 -16 -23 -11 18 5 137 23 171 25
49 63 89 102 107 56 25 59 24 51 -18z m3005 -2 c45 -35 87 -117 95 -186 10
-80 -3 -104 -21 -37 -14 54 -42 117 -49 110 -2 -2 5 -32 15 -67 20 -62 26
-111 14 -111 -16 0 -82 44 -93 62 -7 11 -19 64 -27 117 -7 53 -16 109 -20 125
-7 28 -6 29 22 22 16 -4 45 -20 64 -35z m-2948 -83 c-32 -35 -37 -30 -16 15
13 27 20 33 30 24 10 -10 7 -18 -14 -39z m2835 -24 c-2 -2 -13 7 -26 19 -14
16 -19 30 -15 42 6 15 10 11 26 -20 11 -20 18 -39 15 -41z m-2717 -78 c-38
-79 -115 -126 -206 -126 -60 0 -72 13 -36 39 17 11 42 21 56 21 24 0 96 24 96
32 0 2 -22 1 -50 0 -49 -4 -50 -4 -50 25 0 43 17 53 90 54 36 0 74 4 85 9 33
13 39 -6 15 -54z m2673 44 c74 0 83 -5 89 -49 l5 -33 -55 4 -55 5 34 -18 c19
-10 47 -18 62 -19 34 0 89 -30 84 -45 -5 -15 -79 -18 -127 -5 -68 18 -150 105
-150 159 0 18 3 19 26 11 14 -6 53 -10 87 -10z m-3076 -216 c3 -148 -5 -177
-51 -208 -46 -30 -49 -24 -42 77 7 110 -10 99 -23 -15 -7 -68 -8 -71 -19 -45
-7 16 -12 54 -12 86 0 101 45 191 112 224 18 9 33 17 33 17 0 0 1 -61 2 -136z
m3471 71 c38 -47 52 -96 51 -181 -1 -98 -14 -126 -23 -49 -4 33 -14 74 -21 90
-11 27 -12 20 -7 -62 6 -106 1 -111 -56 -59 l-37 35 2 143 c2 79 3 144 3 146
1 11 64 -34 88 -63z m-131 -91 c-3 -3 -14 10 -25 28 -12 18 -17 35 -12 36 6 2
10 11 11 20 0 10 7 -5 15 -32 9 -26 13 -50 11 -52z m-3273 34 c-17 -33 -41
-51 -30 -22 4 10 10 31 13 46 4 21 8 24 18 15 10 -10 10 -17 -1 -39z m3228
-53 c57 -9 67 -20 61 -62 -6 -37 -17 -40 -71 -18 l-37 15 30 -25 c17 -14 45
-29 64 -35 35 -9 81 -46 81 -63 0 -15 -94 0 -138 22 -67 34 -122 115 -122 180
l0 30 43 -19 c23 -10 63 -21 89 -25z m-3082 5 c0 -70 -80 -165 -159 -188 -39
-12 -101 -16 -101 -7 0 11 64 65 78 65 18 0 92 41 92 51 0 5 -16 1 -35 -7 -55
-23 -65 -19 -65 25 0 43 2 44 75 57 22 4 51 13 65 20 39 21 50 17 50 -16z
m-390 -198 c0 -20 9 -69 20 -107 33 -114 28 -156 -23 -212 -36 -40 -39 -32
-53 102 -7 68 -7 69 -16 32 -4 -21 -4 -63 0 -93 5 -30 5 -54 1 -54 -5 0 -18
32 -30 71 -33 110 -17 201 49 272 36 38 52 35 52 -11z m3788 8 c17 -16 38 -50
47 -75 23 -60 17 -174 -13 -230 l-21 -40 5 70 c3 39 1 84 -4 100 -7 25 -10 16
-15 -57 -11 -134 -19 -143 -67 -76 -36 49 -38 85 -11 178 10 36 21 86 25 113
4 26 11 47 16 47 5 0 22 -13 38 -30z m-3713 -71 c-21 -39 -29 -32 -20 20 6 36
9 39 21 26 13 -13 13 -18 -1 -46z m3605 11 c0 -22 -2 -40 -5 -40 -10 0 -26 53
-21 67 11 27 26 11 26 -27z m-3440 -47 c0 -117 -107 -233 -214 -233 -26 0 14
49 79 96 70 50 79 72 15 36 -26 -15 -51 -24 -54 -21 -4 3 -7 23 -9 44 -2 38
-1 38 56 61 31 12 69 32 85 43 15 11 30 21 35 21 4 0 7 -21 7 -47z m3310 18
c22 -16 55 -32 74 -35 46 -9 60 -28 52 -71 -8 -40 -18 -43 -64 -15 -18 11 -35
20 -39 20 -15 0 51 -59 78 -70 16 -7 29 -16 29 -19 0 -4 9 -17 21 -30 26 -28
20 -35 -24 -27 -52 10 -123 62 -151 111 -27 45 -43 122 -33 149 8 21 11 21 57
-13z m-3680 -293 c7 -24 27 -73 45 -109 47 -93 52 -128 25 -184 -12 -25 -28
-45 -36 -45 -8 0 -25 35 -44 93 l-30 92 5 -60 c3 -33 14 -77 24 -97 16 -33 16
-36 2 -28 -24 12 -66 96 -81 159 -10 42 -10 65 -1 107 11 49 51 114 70 114 4
0 14 -19 21 -42z m4055 -2 c14 -24 28 -66 32 -94 8 -67 -25 -174 -70 -227 -18
-22 -40 -60 -47 -85 l-15 -45 -3 32 c-3 30 1 39 35 77 19 22 43 105 42 149 0
39 -2 35 -25 -42 -14 -46 -27 -88 -30 -93 -10 -16 -24 -8 -44 25 -31 50 -26
103 20 198 22 45 43 97 46 116 8 45 28 42 59 -11z m-3959 8 c12 5 14 -1 8 -32
-9 -51 -24 -64 -24 -21 0 18 -2 43 -4 54 -2 11 -1 14 1 7 3 -8 11 -11 19 -8z
m3819 -34 c-8 -58 -14 -58 -25 -1 -5 31 -4 38 7 34 8 -3 13 2 13 13 0 9 3 15
6 11 3 -3 3 -29 -1 -57z m-3659 8 c12 -38 6 -123 -11 -164 -9 -21 -30 -54 -48
-72 -31 -33 -95 -72 -117 -72 -18 0 20 62 71 117 59 62 65 90 9 39 -22 -20
-44 -36 -48 -36 -12 0 -33 65 -27 81 3 8 27 27 55 42 27 15 59 41 72 57 28 35
35 36 44 8z m3531 -13 c19 -19 52 -44 74 -56 22 -11 42 -26 45 -34 7 -16 -14
-85 -25 -85 -4 0 -27 17 -50 37 l-43 37 15 -31 c9 -17 31 -43 49 -58 31 -26
73 -93 63 -103 -2 -2 -24 6 -49 18 -80 38 -135 126 -136 215 0 51 8 95 18 95
3 0 20 -16 39 -35z m-3754 -464 c41 -55 47 -70 47 -112 0 -48 -16 -99 -31 -99
-11 0 -56 72 -85 135 -29 63 -31 34 -3 -41 24 -63 88 -142 100 -123 4 7 10 -6
14 -30 10 -60 0 -61 -29 -2 -15 28 -33 51 -41 51 -21 0 -93 100 -116 159 -23
62 -24 119 -4 168 28 67 34 68 69 10 18 -28 53 -81 79 -116z m185 137 c49
-102 -2 -263 -99 -314 l-30 -15 7 38 c4 21 17 52 29 68 28 37 55 90 55 106 0
7 -13 -6 -29 -29 -38 -52 -49 -58 -67 -36 -34 45 -30 63 28 118 31 29 59 62
63 75 8 27 26 23 43 -11z m3596 14 c3 -10 33 -46 67 -80 l61 -62 -20 -32 c-12
-18 -25 -34 -31 -36 -5 -2 -26 19 -46 45 -27 35 -35 41 -30 23 4 -14 19 -43
33 -64 40 -58 68 -124 57 -134 -2 -2 -22 9 -44 24 -79 57 -121 161 -101 251
18 76 42 105 54 65z m297 -50 c17 -50 6 -140 -25 -200 -29 -58 -82 -122 -100
-122 -7 0 -23 -21 -36 -46 -27 -52 -46 -69 -37 -33 4 13 7 35 7 49 0 16 3 21
8 13 13 -20 80 56 102 115 36 94 21 96 -26 3 -25 -50 -51 -91 -58 -91 -16 0
-36 57 -36 101 0 35 10 53 96 176 23 32 44 68 48 81 7 22 9 23 27 7 10 -10 23
-33 30 -53z m-4068 25 c4 3 7 -12 7 -35 0 -53 -13 -54 -28 -3 -15 49 -15 56 1
42 8 -6 17 -8 20 -4z m206 -361 c29 -56 34 -150 11 -207 -18 -43 -58 -97 -82
-110 -18 -10 -19 -8 -12 38 3 26 15 64 24 83 10 20 21 54 24 75 l7 40 -26 -50
c-36 -70 -39 -72 -74 -36 -35 36 -34 40 24 117 18 24 36 57 40 74 10 44 34 35
64 -24z m3560 21 c6 -18 29 -57 51 -86 22 -29 40 -58 40 -65 0 -7 -14 -25 -30
-41 -35 -33 -36 -32 -70 40 l-20 40 0 -31 c0 -17 11 -52 25 -78 16 -29 25 -63
25 -89 l-1 -42 -42 46 c-24 26 -49 65 -55 86 -24 80 -8 188 34 234 24 26 31
24 43 -14z m-3751 -154 c79 -71 98 -109 87 -179 -3 -24 -10 -44 -14 -44 -10 0
-83 78 -111 118 -12 18 -24 31 -27 29 -7 -7 22 -58 62 -112 20 -26 34 -49 32
-51 -7 -7 -103 72 -126 105 -59 82 -77 181 -45 242 l15 31 29 -39 c16 -21 60
-66 98 -100z m4032 29 c0 -76 -36 -147 -111 -216 -89 -83 -100 -76 -27 16 15
19 34 52 43 74 l15 39 -22 -29 c-113 -146 -129 -157 -139 -93 -12 72 0 94 111
207 l105 107 12 -26 c7 -14 12 -50 13 -79z m-3736 -230 c35 -55 49 -107 44
-172 -4 -57 -42 -150 -64 -157 -18 -6 -23 73 -8 124 16 54 18 103 4 103 -5 0
-10 -9 -10 -20 0 -11 -7 -36 -15 -56 l-14 -35 -36 23 c-42 28 -45 53 -11 111
14 23 28 60 32 82 3 22 9 43 11 48 8 13 43 -13 67 -51z m3360 17 c4 -22 16
-59 28 -82 41 -81 41 -94 0 -122 -42 -29 -47 -25 -68 55 l-13 45 0 -52 c-1
-28 4 -64 9 -79 6 -15 8 -47 4 -71 -5 -37 -9 -42 -21 -31 -8 6 -24 30 -36 52
-29 54 -30 174 -3 226 19 36 74 100 87 100 3 0 9 -18 13 -41z m-3545 -96 c26
-56 8 -53 -38 6 l-31 39 29 -11 c16 -6 34 -21 40 -34z m3707 38 c16 13 16 12
6 -6 -20 -34 -72 -90 -72 -77 0 6 7 30 16 53 11 27 19 36 25 28 6 -10 11 -10
25 2z m-3798 -50 c26 -21 74 -54 107 -74 90 -54 108 -76 113 -147 4 -49 2 -60
-11 -60 -14 0 -138 104 -145 122 -2 4 -8 8 -13 8 -29 0 76 -110 137 -144 54
-30 58 -31 50 -11 -10 27 3 16 30 -25 15 -22 24 -43 21 -46 -3 -3 -22 10 -44
28 -21 19 -58 40 -83 47 -106 31 -207 138 -226 238 -6 33 2 103 12 103 3 0 26
-17 52 -39z m3902 -31 c0 -60 -37 -137 -91 -189 -44 -42 -129 -91 -159 -91 -9
0 -35 -16 -57 -35 -23 -19 -44 -35 -47 -35 -8 0 17 48 38 75 13 16 15 17 10 3
-8 -23 -5 -23 56 9 48 25 140 115 140 137 0 6 -19 -8 -42 -30 -54 -51 -111
-94 -126 -94 -17 0 -15 74 3 116 10 26 33 46 90 82 42 26 97 63 123 84 53 41
62 37 62 -32z m-3489 -180 c87 -70 119 -210 70 -315 l-23 -50 -10 30 c-5 17
-11 68 -12 115 -3 102 -25 161 -26 68 0 -85 -3 -89 -50 -69 -47 19 -54 39 -34
99 9 24 16 69 16 98 1 64 12 68 69 24z m3079 -21 c0 -27 7 -72 16 -99 9 -27
14 -56 12 -66 -3 -19 -74 -52 -85 -40 -4 3 -9 34 -11 69 -6 83 -20 48 -21 -53
-1 -41 -8 -93 -15 -115 l-14 -40 -21 45 c-30 65 -28 160 4 225 27 57 39 72 79
103 45 35 56 29 56 -29z m-3319 -138 c30 -16 87 -42 126 -56 86 -32 127 -73
138 -135 4 -23 4 -44 1 -48 -7 -6 -81 29 -156 74 l-45 27 35 -37 c36 -39 112
-80 167 -91 29 -6 32 -4 26 12 -3 10 10 0 29 -22 20 -22 34 -42 33 -44 -2 -2
-25 8 -51 23 -25 14 -62 26 -80 26 -93 0 -224 84 -268 171 -25 50 -36 129 -18
129 5 0 33 -13 63 -29z m3559 -11 c0 -54 -20 -99 -67 -150 -47 -53 -160 -110
-217 -110 -25 0 -58 -11 -93 -30 -61 -35 -68 -28 -18 20 19 19 35 29 35 22 0
-16 54 -5 105 20 45 23 95 63 109 87 9 14 8 14 -15 0 -118 -78 -179 -104 -179
-78 0 33 23 91 46 118 17 21 51 39 113 61 49 18 106 43 127 56 22 13 42 24 47
24 4 0 7 -18 7 -40z m-3111 -119 c42 -22 92 -74 117 -124 21 -40 30 -162 14
-202 l-11 -29 -25 43 c-13 24 -24 57 -24 75 0 40 -16 97 -34 121 -13 18 -14
16 -6 -20 5 -22 10 -55 10 -73 0 -33 -1 -33 -32 -27 -72 14 -68 8 -67 108 0
51 -2 104 -6 120 -9 34 9 36 64 8z m2655 -97 c-1 -63 -5 -119 -10 -123 -5 -5
-26 -12 -47 -15 -46 -9 -52 2 -39 75 6 30 9 56 7 58 -8 7 -37 -77 -42 -124 -3
-27 -16 -67 -28 -88 l-23 -39 -11 33 c-36 104 17 247 116 309 77 49 78 47 77
-86z m-2875 -109 c23 -8 80 -21 126 -29 47 -8 100 -22 118 -31 32 -15 66 -63
82 -112 9 -32 -13 -30 -120 8 -48 16 -89 28 -92 26 -2 -3 28 -21 68 -41 56
-28 84 -36 126 -36 34 0 52 4 48 10 -12 19 10 9 45 -20 40 -34 24 -40 -35 -15
-23 9 -52 12 -84 8 -121 -14 -271 60 -322 158 -20 39 -26 89 -10 89 5 0 27 -7
50 -15z m3101 6 c0 -5 -7 -28 -15 -52 -35 -97 -154 -175 -285 -186 -49 -4 -70
-3 -70 6 0 6 9 11 20 11 36 0 178 65 166 77 -2 2 -43 -10 -91 -26 -107 -38
-129 -40 -119 -8 28 93 77 127 203 143 30 4 79 15 110 25 65 20 81 22 81 10z
m-2590 -52 c109 -49 185 -182 164 -288 l-6 -31 -21 28 c-12 15 -27 33 -34 40
-7 7 -13 22 -13 33 0 22 -44 114 -60 124 -13 8 -13 4 5 -38 8 -20 15 -48 15
-62 0 -23 -4 -25 -45 -25 -52 0 -65 16 -65 80 0 22 -9 66 -20 97 -11 32 -20
59 -20 60 0 10 62 -1 100 -18z m2105 -1 c-24 -77 -35 -127 -35 -158 0 -47 -15
-60 -67 -60 -49 0 -50 3 -28 75 8 27 13 51 11 53 -8 7 -55 -84 -61 -118 -6
-31 -55 -100 -71 -100 -4 0 -4 33 -2 74 5 83 34 144 90 191 42 36 105 65 142
65 25 0 27 -3 21 -22z m60 -158 c-3 -5 3 -10 15 -10 12 0 19 -4 16 -9 -7 -10
-95 -36 -101 -29 -3 3 12 17 32 31 41 29 47 32 38 17z m-1809 -34 c92 -43 154
-124 170 -224 4 -23 3 -42 -2 -42 -18 1 -72 56 -89 90 -20 40 -61 91 -82 103
-8 5 0 -17 17 -47 40 -70 35 -86 -23 -86 -53 0 -63 10 -77 77 -6 28 -24 72
-41 97 -16 26 -29 49 -29 51 0 16 111 2 156 -19z m1454 18 c0 -3 -12 -25 -26
-50 -14 -24 -32 -67 -39 -95 -19 -70 -35 -86 -85 -81 -22 2 -42 8 -45 13 -6 9
32 96 46 105 5 3 9 10 9 17 0 20 -66 -53 -89 -97 -18 -37 -77 -96 -95 -96 -3
0 -3 15 0 33 20 120 99 216 204 248 30 9 120 11 120 3z m1166 -81 c13 2 27 0
30 -4 8 -14 -52 -69 -74 -69 -37 0 -43 83 -9 126 l22 29 3 -44 c3 -40 5 -43
28 -38z m-3871 34 c19 -45 7 -101 -23 -105 -24 -4 -72 38 -72 63 0 11 6 14 25
9 23 -6 25 -4 25 30 0 47 26 49 45 3z m1769 -6 c47 -33 86 -86 106 -144 16
-50 9 -160 -14 -212 l-18 -40 -10 30 c-5 17 -12 37 -15 45 -3 8 -7 49 -7 90
-1 41 -7 84 -13 95 -11 17 -12 11 -13 -40 0 -79 -8 -90 -46 -70 -16 8 -35 15
-41 15 -18 0 -16 46 3 121 9 37 14 78 10 101 -8 46 1 48 58 9z m326 -35 c0
-35 7 -83 15 -106 21 -59 12 -84 -38 -104 -22 -9 -43 -14 -45 -11 -3 3 -8 35
-12 73 -5 55 -7 63 -15 42 -4 -14 -9 -56 -10 -95 -1 -38 -7 -90 -14 -115 l-13
-45 -21 40 c-31 60 -34 157 -8 225 12 30 32 67 46 82 25 30 92 78 106 78 5 0
9 -29 9 -64z m-1132 7 c28 -13 92 -88 92 -107 0 -10 -92 -6 -167 8 -40 7 -70
10 -68 5 9 -14 100 -40 164 -46 91 -9 52 -27 -59 -28 -103 0 -170 21 -229 71
-33 29 -81 97 -81 117 0 1 71 1 158 -1 113 -3 166 -8 190 -19z m2217 5 c-32
-108 -180 -187 -327 -175 -38 3 -76 11 -83 17 -10 8 -32 9 -75 2 -33 -5 -62
-6 -64 -3 -2 3 18 16 44 28 33 14 47 17 44 8 -4 -10 10 -15 51 -20 60 -8 165
13 202 40 15 11 4 11 -57 -1 -100 -19 -160 -19 -160 1 0 17 54 81 84 98 12 7
80 14 161 18 77 3 150 6 163 7 20 2 22 -1 17 -20z m-3101 -49 c31 -36 37 -113
10 -123 -32 -12 -56 -5 -85 24 -35 34 -32 50 7 42 27 -5 27 -4 22 42 -7 56 8
61 46 15z m3689 -16 l-6 -46 31 6 c18 4 32 2 32 -2 0 -41 -47 -71 -107 -68
-33 1 -38 4 -28 14 7 7 11 22 8 33 -7 27 14 77 41 95 32 23 36 19 29 -32z
m-3557 -67 c33 -33 37 -44 37 -113 0 -26 4 -33 19 -33 11 0 16 4 12 11 -4 8 0
9 15 4 28 -8 27 4 -4 49 -14 20 -25 40 -25 43 0 3 19 3 41 0 51 -7 103 -47
135 -105 25 -44 24 -45 -21 -55 -11 -3 8 -5 42 -6 98 -2 82 -18 -19 -19 -100
-2 -165 18 -190 57 -9 14 -23 21 -46 21 -37 0 -66 12 -99 43 -32 29 -29 37 17
37 22 0 40 2 40 4 0 2 -9 25 -20 50 l-19 46 25 0 c16 0 39 -13 60 -34z m3464
26 c0 -5 -3 -12 -7 -16 -4 -3 -12 -22 -19 -41 l-12 -35 39 0 c44 0 49 -10 19
-40 -38 -38 -120 -54 -136 -28 -21 34 5 114 50 150 22 18 66 24 66 10z m-2500
-52 c0 -4 -26 -3 -57 2 -57 9 -82 18 -49 18 11 0 16 5 13 14 -4 10 7 8 44 -7
27 -12 49 -24 49 -27z m345 -1 c28 -14 87 -39 133 -54 104 -34 136 -61 159
-131 27 -88 17 -87 -157 8 l-55 30 45 -42 c47 -44 109 -81 144 -85 12 -1 31
-5 44 -9 24 -8 29 3 10 22 -7 7 -8 12 -4 12 4 0 17 -11 28 -25 25 -32 35 -31
69 1 26 25 27 25 22 5 -5 -20 -3 -21 22 -11 15 6 30 8 33 6 7 -8 82 33 140 76
65 48 61 62 -5 20 -62 -39 -154 -82 -164 -76 -11 7 0 62 22 105 22 45 59 67
169 103 47 16 104 39 127 53 45 26 59 20 49 -23 -4 -14 -9 -45 -11 -69 -4 -39
-2 -44 18 -48 15 -3 11 -5 -12 -6 -25 -1 -46 -12 -78 -42 -60 -55 -161 -101
-227 -104 -52 -2 -116 -27 -116 -45 0 -6 -11 -10 -25 -10 -14 0 -25 4 -25 10
0 18 -63 43 -115 45 -65 3 -173 53 -226 106 -42 42 -88 52 -119 24 -23 -21
-125 -45 -192 -45 -98 0 -210 55 -243 121 l-16 29 39 0 c22 0 86 9 143 21 143
29 189 24 242 -29 29 -30 38 -45 31 -52 -6 -6 -60 -14 -120 -17 -120 -7 -111
-20 16 -22 80 -1 157 20 152 40 -9 37 -14 141 -6 138 5 -2 32 -16 59 -30z
m1140 -29 c53 -11 115 -20 136 -20 23 0 39 -5 39 -12 0 -6 -22 -33 -49 -59
-80 -77 -200 -99 -335 -61 -86 24 -81 38 11 34 43 -2 94 1 113 6 33 10 31 10
-30 12 -73 1 -157 13 -167 23 -8 9 33 54 72 78 38 24 89 24 210 -1z m875 14
c0 -3 -8 -18 -18 -32 -10 -15 -22 -35 -25 -45 -5 -14 -2 -16 21 -11 20 4 23 3
13 -4 -11 -8 -8 -11 15 -14 l29 -3 -29 -26 c-39 -36 -87 -49 -184 -47 -98 1
-110 17 -14 20 37 0 52 3 35 5 -41 5 -41 16 -3 77 21 32 44 53 73 66 41 19 87
26 87 14z m-2917 -84 c27 -14 64 -42 83 -65 19 -22 41 -48 49 -57 8 -10 14
-19 13 -19 -2 -1 -34 -7 -73 -14 l-70 -12 75 -2 75 -3 -35 -15 c-57 -25 -150
-20 -215 11 -69 34 -71 51 -5 60 28 4 50 10 50 15 0 5 -24 33 -54 64 -29 31
-51 59 -47 63 13 13 108 -3 154 -26z m2721 22 c2 -4 -20 -34 -51 -65 l-55 -57
27 -10 c14 -5 37 -10 50 -10 55 0 25 -39 -54 -70 -45 -18 -147 -16 -191 3
l-35 15 80 2 80 2 -60 10 c-90 13 -90 13 -59 55 39 54 72 81 129 108 49 23
129 33 139 17z m-2410 -42 c77 -24 192 -99 190 -124 -1 -11 8 -19 27 -23 44
-9 30 -26 -37 -44 -133 -38 -135 -39 -56 -34 56 3 84 10 118 30 24 14 42 30
39 35 -6 10 97 19 109 9 4 -4 -18 -13 -49 -20 -36 -8 -61 -20 -69 -32 -6 -10
-33 -31 -61 -45 -45 -24 -61 -27 -155 -27 -93 0 -111 3 -162 27 -58 27 -75 48
-40 48 10 0 56 19 101 41 78 40 86 41 152 37 38 -3 69 -4 69 -2 0 2 -21 10
-47 18 -27 7 -70 25 -98 39 -74 38 -108 43 -47 8 28 -17 52 -33 52 -36 0 -2
-13 -11 -29 -20 -35 -18 -52 -13 -107 31 -22 18 -59 42 -82 54 -23 12 -42 24
-42 26 0 3 10 9 23 14 39 15 133 11 201 -10z m2156 4 c8 -8 -3 -20 -42 -43
-29 -17 -71 -45 -93 -61 -37 -28 -42 -29 -73 -18 -40 15 -37 27 17 57 68 38
38 37 -41 -1 -78 -37 -156 -63 -165 -54 -15 15 107 92 187 118 61 20 191 21
210 2z m-2232 -135 c24 -1 -27 -17 -58 -18 -24 0 -24 0 -5 15 11 8 26 12 33 9
8 -3 21 -5 30 -6z m2071 -29 c43 -22 86 -40 94 -40 36 0 23 -19 -31 -45 -114
-57 -294 -42 -368 29 -23 23 -51 37 -89 45 -30 7 -55 17 -55 23 0 6 10 8 23 4
12 -3 39 -6 60 -6 21 0 36 -4 33 -8 -8 -14 45 -48 96 -60 26 -7 68 -12 95 -11
48 1 48 1 -30 20 -82 20 -117 34 -117 48 0 15 94 40 152 40 48 1 71 -6 137
-39z m91 25 c10 -12 9 -15 -6 -15 -11 0 -30 3 -44 7 l-25 7 25 7 c37 10 36 10
50 -6z m-1406 -28 c61 -19 58 -37 -6 -37 -55 0 -208 -33 -237 -50 -11 -7 5 -8
54 -3 98 11 198 10 201 -2 6 -16 -144 -118 -202 -137 -45 -15 -61 -16 -101 -7
-27 6 -88 14 -137 18 l-90 6 61 61 c128 127 322 191 457 151z m831 -16 c72
-25 180 -97 232 -154 l38 -42 -90 -6 c-50 -4 -109 -11 -133 -17 -72 -17 -144
10 -255 96 -57 43 -59 46 -38 56 15 6 59 6 133 -2 62 -6 114 -10 116 -8 10 11
-142 48 -216 53 -90 6 -102 19 -36 40 54 18 176 10 249 -16z m-617 -27 c-9 -8
-172 -63 -176 -59 -2 2 9 10 24 18 l27 14 -49 9 -49 8 50 7 c66 8 180 10 173
3z m322 -3 l55 -7 -44 -8 -44 -8 24 -19 c19 -15 6 -13 -65 11 -49 16 -91 32
-94 35 -7 7 101 5 168 -4z m-311 -60 c20 -11 54 -40 75 -65 39 -48 81 -76 114
-76 32 0 70 38 75 73 l4 32 1 -35 c2 -45 -19 -77 -58 -85 -48 -11 -93 11 -154
76 -64 66 -94 83 -129 70 -30 -12 -48 -34 -57 -74 -8 -30 -8 -30 -9 -5 -2 41
20 79 54 94 39 17 39 17 84 -5z m228 -2 c7 -6 13 -18 13 -27 0 -13 -2 -13 -18
1 -23 21 -72 22 -98 2 -25 -19 -35 -19 -28 0 15 39 95 54 131 24z m-262 -149
c12 0 34 9 48 20 30 24 38 25 30 5 -7 -20 -55 -45 -85 -45 -30 0 -68 26 -68
46 0 12 5 11 26 -5 15 -12 37 -21 49 -21z"/>
<path d="M2711 4414 c0 -11 3 -14 6 -6 3 7 2 16 -1 19 -3 4 -6 -2 -5 -13z"/>
<path d="M2838 4383 c18 -2 45 -2 60 0 15 2 0 4 -33 4 -33 0 -45 -2 -27 -4z"/>
<path d="M2948 4373 c6 -2 18 -2 25 0 6 3 1 5 -13 5 -14 0 -19 -2 -12 -5z"/>
<path d="M3168 4333 c7 -3 16 -2 19 1 4 3 -2 6 -13 5 -11 0 -14 -3 -6 -6z"/>
<path d="M3320 4280 c8 -5 22 -9 30 -9 10 0 8 3 -5 9 -27 12 -43 12 -25 0z"/>
<path d="M3500 4255 c-17 -21 -8 -28 15 -11 11 8 14 15 8 19 -6 4 -16 0 -23
-8z"/>
<path d="M1970 4120 c0 -5 5 -10 11 -10 5 0 7 5 4 10 -3 6 -8 10 -11 10 -2 0
-4 -4 -4 -10z"/>
<path d="M3836 3995 c4 -8 8 -15 10 -15 2 0 4 7 4 15 0 8 -4 15 -10 15 -5 0
-7 -7 -4 -15z"/>
<path d="M3790 3985 c-7 -8 -8 -15 -2 -15 5 0 15 7 22 15 7 8 8 15 2 15 -5 0
-15 -7 -22 -15z"/>
<path d="M2752 3832 c-13 -4 -23 -10 -23 -14 1 -5 1 -55 1 -113 0 -87 3 -105
15 -105 11 0 15 11 15 43 l0 44 47 9 c56 11 89 48 79 88 -3 14 -14 30 -24 35
-26 14 -84 21 -110 13z m82 -28 c19 -7 21 -55 4 -72 -7 -7 -27 -12 -45 -12
-32 0 -33 1 -33 45 0 43 1 45 29 45 16 0 36 -3 45 -6z"/>
<path d="M2945 3821 c-8 -14 -26 -212 -19 -222 13 -21 23 -5 30 47 l7 56 50
-6 c28 -4 55 -10 60 -13 4 -3 5 -30 1 -60 -5 -45 -4 -55 7 -51 13 4 64 216 54
226 -13 13 -33 -12 -39 -48 l-7 -42 -52 7 c-28 4 -55 9 -59 12 -5 2 -8 26 -8
54 0 45 -11 62 -25 40z"/>
<path d="M2085 3808 c-3 -7 3 -42 13 -78 12 -47 22 -66 36 -68 16 -3 18 1 14
27 -2 17 -4 31 -2 31 1 0 82 -87 180 -192 98 -106 182 -193 188 -193 31 0 -2
47 -130 186 -77 85 -155 171 -173 191 l-33 38 32 -7 c28 -5 32 -3 28 13 -2 13
-23 26 -63 41 -71 26 -84 27 -90 11z"/>
<path d="M2488 3791 c-29 -26 -33 -36 -33 -78 0 -89 68 -147 145 -124 55 16
73 43 78 111 4 55 2 61 -26 90 -26 25 -38 30 -81 30 -42 0 -56 -5 -83 -29z
m116 -2 c51 -23 60 -125 15 -161 -84 -69 -184 77 -103 150 28 25 51 27 88 11z"/>
<path d="M3465 3795 c-63 -24 -81 -52 -32 -48 30 2 29 -4 -9 -44 -270 -287
-335 -368 -299 -368 6 0 91 87 189 193 98 105 179 192 180 192 2 0 0 -14 -2
-31 -4 -26 -1 -30 13 -27 13 2 24 23 37 68 28 99 22 104 -77 65z"/>
<path d="M1635 3770 c-4 -6 3 -10 14 -10 25 0 27 6 6 13 -8 4 -17 2 -20 -3z"/>
<path d="M4005 3660 c3 -5 10 -10 16 -10 5 0 9 5 9 10 0 6 -7 10 -16 10 -8 0
-12 -4 -9 -10z"/>
<path d="M1510 3414 c0 -8 5 -12 10 -9 6 3 10 10 10 16 0 5 -4 9 -10 9 -5 0
-10 -7 -10 -16z"/>
<path d="M4081 3413 c-1 -12 4 -25 9 -28 12 -7 12 2 0 30 -8 19 -9 19 -9 -2z"/>
<path d="M2707 3361 c11 -29 15 -33 24 -20 13 21 11 26 -10 32 -15 4 -18 1
-14 -12z"/>
<path d="M2763 3345 c0 -21 2 -23 14 -14 8 7 10 15 6 18 -4 4 -11 10 -14 14
-4 4 -6 -4 -6 -18z"/>
<path d="M4020 3365 c1 -6 7 -35 15 -65 l15 -55 -6 55 c-3 30 -9 59 -15 65 -6
5 -9 5 -9 0z"/>
<path d="M2815 3343 c11 -3 24 -11 28 -19 4 -8 19 -14 32 -14 20 0 25 -5 25
-27 1 -24 2 -25 11 -11 11 21 -9 61 -28 54 -6 -3 -17 2 -23 10 -7 8 -24 13
-39 13 -21 -1 -22 -2 -6 -6z"/>
<path d="M2933 3343 c9 -2 23 -2 30 0 6 3 -1 5 -18 5 -16 0 -22 -2 -12 -5z"/>
<path d="M2980 3314 c0 -30 25 -61 33 -41 4 9 8 8 16 -3 20 -28 12 -51 -24
-66 -26 -10 -35 -20 -34 -37 l0 -22 11 23 c15 31 26 28 31 -10 l4 -33 1 31 c1
17 9 37 17 44 23 19 18 52 -16 98 -17 23 -33 42 -35 42 -2 0 -4 -12 -4 -26z"/>
<path d="M2622 3303 c-9 -16 -8 -23 2 -32 19 -16 28 1 18 30 l-9 23 -11 -21z"/>
<path d="M2542 3278 c-28 -36 -19 -108 13 -108 9 0 14 -4 11 -9 -8 -13 36 0
52 15 21 21 14 27 -28 20 -35 -6 -40 -4 -45 17 -4 12 -1 35 4 50 11 29 9 34
-7 15z"/>
<path d="M2710 3252 c0 -12 19 -26 26 -19 2 2 -2 10 -11 17 -9 8 -15 8 -15 2z"/>
<path d="M2890 3217 c0 -5 -4 -5 -10 -2 -15 9 -11 -17 5 -39 16 -21 17 -21 34
12 15 28 31 20 24 -11 l-5 -22 17 23 c9 12 15 28 13 34 -4 12 -78 17 -78 5z"/>
<path d="M4052 3200 c0 -19 2 -27 5 -17 2 9 2 25 0 35 -3 9 -5 1 -5 -18z"/>
<path d="M1586 3146 c-17 -153 15 -379 70 -503 29 -66 38 -68 18 -5 -54 176
-64 238 -73 437 l-7 150 -8 -79z"/>
<path d="M2800 3200 c-13 -9 -13 -10 0 -10 8 0 22 5 30 10 13 9 13 10 0 10 -8
0 -22 -5 -30 -10z"/>
<path d="M4122 3190 c0 -14 2 -19 5 -12 2 6 2 18 0 25 -3 6 -5 1 -5 -13z"/>
<path d="M2657 3183 c-4 -6 -4 -18 -1 -27 5 -13 9 -14 20 -5 8 7 14 7 14 2 0
-6 12 -8 26 -5 l25 5 -27 18 c-19 12 -31 15 -35 7 -4 -7 -8 -6 -11 3 -3 9 -6
10 -11 2z"/>
<path d="M1514 3080 c0 -58 1 -81 3 -52 2 28 2 76 0 105 -2 28 -3 5 -3 -53z"/>
<path d="M2610 3145 c0 -8 5 -15 10 -15 6 0 10 7 10 15 0 8 -4 15 -10 15 -5 0
-10 -7 -10 -15z"/>
<path d="M2583 3105 c0 -27 2 -38 4 -22 2 15 2 37 0 50 -2 12 -4 0 -4 -28z"/>
<path d="M2713 3127 l-32 -10 -3 -198 c-2 -110 0 -199 3 -199 12 0 19 61 20
169 2 105 2 105 10 41 5 -36 8 -99 6 -140 l-2 -75 90 -3 c133 -4 136 -3 129
61 -3 28 -7 117 -7 197 l-2 144 -32 7 -32 6 6 -43 c4 -35 3 -44 -9 -44 -19 0
-39 39 -36 69 2 13 -3 26 -9 28 -9 3 -13 -7 -13 -34 0 -21 -3 -49 -6 -63 -4
-20 -3 -22 5 -10 9 12 11 10 11 -13 0 -34 -27 -48 -46 -23 -8 12 -11 34 -7 66
7 64 -3 79 -44 67z m172 -307 l0 -65 -58 -3 c-40 -2 -58 1 -61 10 -3 7 -7 53
-10 101 l-5 88 37 16 c20 8 40 20 45 27 5 8 12 5 22 -8 15 -19 15 -19 17 5 2
38 13 -98 13 -171z"/>
<path d="M2040 3120 c0 -6 53 -10 140 -10 87 0 140 4 140 10 0 6 -53 10 -140
10 -87 0 -140 -4 -140 -10z"/>
<path d="M3320 3121 c0 -10 265 -9 276 2 4 4 -56 7 -134 7 -78 0 -142 -4 -142
-9z"/>
<path d="M3042 3108 c-7 -7 -18 -13 -25 -13 -8 0 -12 -26 -13 -85 -1 -81 -1
-82 5 -20 6 63 7 65 41 77 19 7 51 11 70 8 19 -2 27 -1 18 1 -10 3 -18 10 -18
15 0 5 -7 9 -15 9 -8 0 -15 5 -15 10 0 14 -34 12 -48 -2z"/>
<path d="M2950 3004 c0 -137 10 -264 21 -264 11 0 -1 352 -12 365 -5 5 -9 -38
-9 -101z"/>
<path d="M3206 3095 c4 -11 10 -40 14 -65 l7 -45 1 40 c1 22 -6 51 -14 65 -10
16 -13 18 -8 5z"/>
<path d="M2618 2923 c-2 -98 -3 -180 -1 -182 11 -14 15 27 20 183 4 119 3 176
-4 176 -7 0 -12 -64 -15 -177z"/>
<path d="M3310 3026 c0 -30 4 -57 9 -61 6 -3 9 7 8 22 -1 19 3 28 13 28 9 0
15 -9 14 -22 -1 -25 11 -31 19 -10 7 20 -12 47 -33 47 -11 0 -20 6 -20 14 0
24 22 30 37 11 11 -16 13 -16 13 -3 0 16 -20 28 -46 28 -10 0 -14 -14 -14 -54z"/>
<path d="M2047 3053 c-4 -3 -6 -25 -6 -47 1 -23 3 -33 6 -23 2 9 9 17 15 17 6
0 5 6 -2 15 -14 17 -14 17 15 33 20 11 20 11 -1 12 -11 0 -24 -3 -27 -7z"/>
<path d="M2300 3014 c0 -26 3 -44 7 -40 10 10 11 76 2 82 -5 3 -9 -16 -9 -42z"/>
<path d="M3444 3031 c4 -6 0 -14 -9 -18 -10 -3 -21 0 -25 7 -5 9 -9 9 -14 1
-9 -14 2 -51 14 -51 5 0 7 7 4 15 -5 11 1 15 20 15 27 0 36 23 14 36 -7 4 -8
3 -4 -5z"/>
<path d="M3487 3033 c-11 -10 -8 -51 3 -58 6 -3 7 1 4 9 -5 12 0 16 18 16 14
0 27 3 31 6 8 8 -3 34 -14 34 -4 0 -6 -7 -2 -16 4 -12 1 -15 -13 -12 -10 2
-18 10 -16 16 2 13 -1 15 -11 5z"/>
<path d="M3560 3011 c0 -17 5 -33 10 -36 6 -4 10 6 10 24 0 16 6 32 13 34 6 3
2 6 -10 6 -19 1 -23 -4 -23 -28z"/>
<path d="M2105 3009 c-4 -12 -2 -26 5 -33 10 -8 11 -7 6 8 -3 10 -1 25 5 32 8
9 8 14 1 14 -6 0 -14 -9 -17 -21z"/>
<path d="M2148 3000 c2 -16 6 -30 8 -30 2 0 4 14 4 30 0 17 -4 30 -8 30 -5 0
-7 -13 -4 -30z"/>
<path d="M2184 3015 c-3 -8 -4 -20 -2 -27 3 -7 7 -1 10 15 6 29 1 36 -8 12z"/>
<path d="M2225 3000 c0 -15 3 -26 8 -23 4 2 7 13 7 23 0 10 -3 21 -7 23 -5 3
-8 -8 -8 -23z"/>
<path d="M2264 3016 c-3 -8 -4 -23 -2 -33 3 -11 6 -6 9 15 6 34 2 42 -7 18z"/>
<path d="M3165 2991 c-9 -53 -43 -102 -82 -121 -23 -11 -30 -19 -24 -29 22
-36 121 80 123 144 2 50 -9 54 -17 6z"/>
<path d="M1522 2925 c0 -16 2 -22 5 -12 2 9 2 23 0 30 -3 6 -5 -1 -5 -18z"/>
<path d="M2043 2928 c-2 -5 59 -8 136 -8 78 0 141 3 141 8 0 4 -61 7 -136 7
-75 0 -138 -3 -141 -7z"/>
<path d="M2583 2905 c0 -22 2 -30 4 -17 2 12 2 30 0 40 -3 9 -5 -1 -4 -23z"/>
<path d="M3415 2929 c-96 -5 -94 -5 45 -6 80 -1 141 0 135 2 -23 8 -86 10
-180 4z"/>
<path d="M3013 2845 c0 -22 2 -30 4 -17 2 12 2 30 0 40 -3 9 -5 -1 -4 -23z"/>
<path d="M3097 2820 c-33 -22 -63 -37 -68 -34 -5 3 -9 -4 -9 -15 0 -36 19 -33
67 9 40 35 81 81 71 80 -2 0 -29 -18 -61 -40z"/>
<path d="M2572 2810 c0 -19 2 -27 5 -17 2 9 2 25 0 35 -3 9 -5 1 -5 -18z"/>
<path d="M1551 2754 c0 -11 3 -14 6 -6 3 7 2 16 -1 19 -3 4 -6 -2 -5 -13z"/>
<path d="M2965 2698 c-38 -11 -262 -14 -335 -4 -74 11 -55 -11 27 -30 101 -24
312 -9 345 24 15 15 -4 20 -37 10z"/>
<path d="M1571 2684 c0 -11 3 -14 6 -6 3 7 2 16 -1 19 -3 4 -6 -2 -5 -13z"/>
<path d="M2427 2615 l-38 -45 -69 0 c-77 0 -100 -6 -100 -26 0 -10 15 -14 60
-14 57 0 75 -10 48 -27 -7 -4 -49 -10 -93 -13 -62 -4 -80 -8 -80 -20 0 -12 13
-15 58 -15 55 0 69 -6 46 -21 -7 -4 -46 -9 -88 -11 -42 -3 -80 -9 -85 -13 -20
-19 9 -30 78 -30 l74 0 7 -76 c6 -62 10 -75 23 -72 15 3 17 15 14 83 -3 61 0
85 12 100 14 19 15 17 16 -28 0 -50 13 -87 30 -87 6 0 10 38 10 89 0 66 4 92
15 101 13 11 15 6 15 -33 0 -55 8 -77 26 -77 11 0 14 19 14 87 0 87 0 87 36
124 23 24 34 43 31 53 -10 25 -20 20 -60 -29z"/>
<path d="M3147 2646 c-3 -7 12 -30 34 -52 l39 -38 0 -88 c0 -69 3 -88 14 -88
18 0 26 22 26 77 0 41 2 44 16 32 13 -11 15 -28 12 -91 -3 -55 -1 -81 8 -89
16 -13 20 -5 29 59 11 86 30 59 30 -44 0 -76 2 -89 18 -92 14 -3 17 4 17 50 0
96 2 98 86 98 69 0 98 11 78 30 -5 4 -44 10 -87 13 -43 2 -84 10 -90 16 -6 6
-7 11 -1 12 5 0 32 1 59 2 37 2 50 6 50 17 0 12 -18 16 -80 20 -44 3 -86 9
-92 13 -28 17 -10 27 48 27 52 0 60 2 57 18 -3 14 -16 17 -85 20 l-83 3 -37
44 c-38 46 -57 55 -66 31z"/>
<path d="M2610 2635 c0 -8 9 -19 20 -25 16 -9 22 -8 27 6 3 9 0 20 -8 25 -21
13 -39 11 -39 -6z"/>
<path d="M2950 2642 c-18 -8 -20 -37 -2 -36 28 2 32 5 32 24 0 21 -5 23 -30
12z"/>
<path d="M2786 2633 c-28 -4 -28 -5 -8 -19 17 -11 26 -12 47 -2 18 8 22 14 13
20 -7 4 -15 7 -18 6 -3 0 -18 -3 -34 -5z"/>
<path d="M980 1226 c0 -9 5 -16 10 -16 6 0 10 4 10 9 0 6 -4 13 -10 16 -5 3
-10 -1 -10 -9z"/>
<path d="M4641 1224 c0 -11 3 -14 6 -6 3 7 2 16 -1 19 -3 4 -6 -2 -5 -13z"/>
<path d="M1110 1153 c0 -12 5 -25 10 -28 13 -8 13 15 0 35 -8 12 -10 11 -10
-7z"/>
<path d="M1280 1082 c6 -13 14 -21 18 -18 3 4 -2 14 -12 24 -18 16 -18 16 -6
-6z"/>
<path d="M4506 1144 c-8 -20 -4 -25 11 -16 7 4 9 13 4 21 -6 10 -10 9 -15 -5z"/>
<path d="M4340 1085 c-7 -9 -11 -18 -8 -20 3 -3 11 1 18 10 7 9 11 18 8 20 -3
3 -11 -1 -18 -10z"/>
<path d="M1524 1012 c16 -17 34 -29 39 -25 10 6 -10 25 -48 45 -14 7 -11 1 9
-20z"/>
<path d="M4093 1015 c-15 -13 -23 -25 -17 -25 6 0 21 11 34 25 30 32 19 32
-17 0z"/>
</g>
</svg>
